<svg xmlns="http://www.w3.org/2000/svg" xmlns:xlink="http://www.w3.org/1999/xlink" viewBox="0 0 370.8 71.48"><defs><style>.cls-1{fill:url(#linear-gradient);}.cls-2{fill:url(#linear-gradient-2);}.cls-3{fill:url(#linear-gradient-3);}.cls-4{fill:url(#linear-gradient-4);}.cls-5{fill:url(#linear-gradient-5);}.cls-6{fill:url(#linear-gradient-6);}.cls-7{fill:url(#linear-gradient-7);}.cls-8{fill:url(#linear-gradient-8);}.cls-9{fill:url(#linear-gradient-9);}.cls-10{fill:url(#linear-gradient-10);}.cls-11{fill:url(#linear-gradient-11);}.cls-12{fill:url(#linear-gradient-12);}.cls-13{fill:url(#linear-gradient-13);}.cls-14{fill:url(#linear-gradient-14);}.cls-15{fill:url(#linear-gradient-15);}.cls-16{fill:url(#linear-gradient-16);}.cls-17{fill:url(#linear-gradient-17);}.cls-18{fill:url(#linear-gradient-18);}.cls-19{fill:url(#linear-gradient-19);}.cls-20{fill:url(#linear-gradient-20);}.cls-21{fill:url(#linear-gradient-21);}.cls-22{fill:url(#linear-gradient-22);}.cls-23{fill:url(#linear-gradient-23);}.cls-24{fill:url(#linear-gradient-24);}.cls-25{fill:url(#linear-gradient-25);}.cls-26{fill:url(#linear-gradient-26);}.cls-27{fill:url(#linear-gradient-27);}.cls-28{fill:#1b3665;}.cls-29{fill:#2d9bfc;}</style><linearGradient id="linear-gradient" x1="26.48" y1="31.35" x2="61.42" y2="31.35" gradientUnits="userSpaceOnUse"><stop offset="0" stop-color="#3de0ff"/><stop offset="0.48" stop-color="#2d9bfc"/><stop offset="1" stop-color="#005cff"/></linearGradient><linearGradient id="linear-gradient-2" x1="25.46" y1="31.35" x2="60.14" y2="31.35" xlink:href="#linear-gradient"/><linearGradient id="linear-gradient-3" x1="24.44" y1="31.35" x2="58.86" y2="31.35" xlink:href="#linear-gradient"/><linearGradient id="linear-gradient-4" x1="23.42" y1="31.35" x2="57.58" y2="31.35" xlink:href="#linear-gradient"/><linearGradient id="linear-gradient-5" x1="22.41" y1="31.35" x2="56.3" y2="31.35" xlink:href="#linear-gradient"/><linearGradient id="linear-gradient-6" x1="21.39" y1="31.35" x2="55.02" y2="31.35" xlink:href="#linear-gradient"/><linearGradient id="linear-gradient-7" x1="20.37" y1="31.35" x2="53.75" y2="31.35" xlink:href="#linear-gradient"/><linearGradient id="linear-gradient-8" x1="19.35" y1="31.35" x2="52.47" y2="31.35" xlink:href="#linear-gradient"/><linearGradient id="linear-gradient-9" x1="18.33" y1="31.35" x2="51.19" y2="31.35" xlink:href="#linear-gradient"/><linearGradient id="linear-gradient-10" x1="17.31" y1="31.35" x2="49.91" y2="31.35" xlink:href="#linear-gradient"/><linearGradient id="linear-gradient-11" x1="16.29" y1="31.35" x2="48.63" y2="31.35" xlink:href="#linear-gradient"/><linearGradient id="linear-gradient-12" x1="15.28" y1="31.35" x2="47.35" y2="31.35" xlink:href="#linear-gradient"/><linearGradient id="linear-gradient-13" x1="14.26" y1="31.35" x2="46.07" y2="31.35" xlink:href="#linear-gradient"/><linearGradient id="linear-gradient-14" x1="13.24" y1="31.35" x2="44.79" y2="31.35" xlink:href="#linear-gradient"/><linearGradient id="linear-gradient-15" x1="12.22" y1="31.35" x2="43.51" y2="31.35" xlink:href="#linear-gradient"/><linearGradient id="linear-gradient-16" x1="11.2" y1="31.35" x2="42.23" y2="31.35" xlink:href="#linear-gradient"/><linearGradient id="linear-gradient-17" x1="10.18" y1="31.35" x2="40.95" y2="31.35" xlink:href="#linear-gradient"/><linearGradient id="linear-gradient-18" x1="9.17" y1="31.35" x2="39.67" y2="31.35" xlink:href="#linear-gradient"/><linearGradient id="linear-gradient-19" x1="8.15" y1="31.35" x2="38.39" y2="31.35" xlink:href="#linear-gradient"/><linearGradient id="linear-gradient-20" x1="7.13" y1="31.35" x2="37.12" y2="31.35" xlink:href="#linear-gradient"/><linearGradient id="linear-gradient-21" x1="6.11" y1="31.35" x2="35.84" y2="31.35" xlink:href="#linear-gradient"/><linearGradient id="linear-gradient-22" x1="5.09" y1="31.35" x2="34.56" y2="31.35" xlink:href="#linear-gradient"/><linearGradient id="linear-gradient-23" x1="4.07" y1="31.35" x2="33.28" y2="31.35" xlink:href="#linear-gradient"/><linearGradient id="linear-gradient-24" x1="3.06" y1="31.35" x2="32" y2="31.35" xlink:href="#linear-gradient"/><linearGradient id="linear-gradient-25" x1="2.04" y1="31.35" x2="30.72" y2="31.35" xlink:href="#linear-gradient"/><linearGradient id="linear-gradient-26" x1="1.02" y1="31.35" x2="29.44" y2="31.35" xlink:href="#linear-gradient"/><linearGradient id="linear-gradient-27" x1="0" y1="31.35" x2="28.16" y2="31.35" xlink:href="#linear-gradient"/></defs><g id="Layer_2" data-name="Layer 2"><g id="Layer_1-2" data-name="Layer 1"><path class="cls-1" d="M28.16,3.5l9.59,1A1.51,1.51,0,0,1,39.12,6V21a1.53,1.53,0,0,0,1.46,1.52l8.73.38a1.52,1.52,0,0,1,1.46,1.52v14.2a1.53,1.53,0,0,0,1.56,1.52L59.86,40a1.53,1.53,0,0,1,1.56,1.53V55A1.53,1.53,0,0,1,60,56.53L28.13,59.2a1.53,1.53,0,0,1-1.65-1.52V5A1.53,1.53,0,0,1,28.16,3.5Z"/><path class="cls-2" d="M27.14,3.71l9.5,1A1.51,1.51,0,0,1,38,6.19v14.9a1.53,1.53,0,0,0,1.46,1.53l8.64.37a1.53,1.53,0,0,1,1.46,1.53V38.58a1.54,1.54,0,0,0,1.56,1.53L58.58,40a1.52,1.52,0,0,1,1.56,1.53V54.82a1.53,1.53,0,0,1-1.4,1.52L27.11,59a1.53,1.53,0,0,1-1.65-1.52V5.23A1.53,1.53,0,0,1,27.14,3.71Z"/><path class="cls-3" d="M26.12,3.92l9.41,1A1.54,1.54,0,0,1,36.9,6.39V21.16a1.51,1.51,0,0,0,1.46,1.52l8.55.37a1.54,1.54,0,0,1,1.47,1.53V38.51A1.52,1.52,0,0,0,49.93,40l7.37-.16a1.53,1.53,0,0,1,1.56,1.53V54.63a1.52,1.52,0,0,1-1.4,1.52L26.1,58.78a1.54,1.54,0,0,1-1.66-1.52V5.44A1.52,1.52,0,0,1,26.12,3.92Z"/><path class="cls-4" d="M25.1,4.13l9.31.94a1.54,1.54,0,0,1,1.38,1.52V21.23a1.52,1.52,0,0,0,1.46,1.52l8.46.37a1.52,1.52,0,0,1,1.47,1.52V38.45A1.52,1.52,0,0,0,48.73,40L56,39.82a1.52,1.52,0,0,1,1.56,1.53V54.44A1.53,1.53,0,0,1,56.18,56l-31.1,2.6a1.53,1.53,0,0,1-1.66-1.52V5.65A1.53,1.53,0,0,1,25.1,4.13Z"/><path class="cls-5" d="M24.09,4.34l9.21.93a1.53,1.53,0,0,1,1.37,1.52v14.5a1.54,1.54,0,0,0,1.46,1.53l8.39.36A1.53,1.53,0,0,1,46,24.7V38.38a1.53,1.53,0,0,0,1.55,1.53l7.22-.15a1.52,1.52,0,0,1,1.55,1.52v13a1.52,1.52,0,0,1-1.4,1.52L24.06,58.36a1.52,1.52,0,0,1-1.65-1.52v-51A1.52,1.52,0,0,1,24.09,4.34Z"/><path class="cls-6" d="M23.07,4.55l9.12.92A1.53,1.53,0,0,1,33.56,7V21.36A1.52,1.52,0,0,0,35,22.88l8.3.36a1.54,1.54,0,0,1,1.46,1.53V38.31a1.52,1.52,0,0,0,1.55,1.53l7.14-.15A1.52,1.52,0,0,1,55,41.22V54.07a1.52,1.52,0,0,1-1.39,1.52L23,58.15a1.52,1.52,0,0,1-1.65-1.52V6.07A1.52,1.52,0,0,1,23.07,4.55Z"/><path class="cls-7" d="M22.05,4.76l9,.91a1.54,1.54,0,0,1,1.38,1.52V21.42A1.53,1.53,0,0,0,33.91,23l8.21.35a1.54,1.54,0,0,1,1.46,1.53V38.25a1.52,1.52,0,0,0,1.55,1.52l7.06-.14a1.53,1.53,0,0,1,1.56,1.52V53.88a1.52,1.52,0,0,1-1.4,1.52L22,57.94a1.52,1.52,0,0,1-1.65-1.52V6.27A1.52,1.52,0,0,1,22.05,4.76Z"/><path class="cls-8" d="M21,5,30,5.87a1.53,1.53,0,0,1,1.37,1.52v14.1A1.52,1.52,0,0,0,32.79,23l8.13.36a1.52,1.52,0,0,1,1.46,1.52V38.18a1.52,1.52,0,0,0,1.55,1.53l7-.15a1.53,1.53,0,0,1,1.56,1.53V53.7a1.53,1.53,0,0,1-1.4,1.52L21,57.73a1.52,1.52,0,0,1-1.65-1.52V6.48A1.53,1.53,0,0,1,21,5Z"/><path class="cls-9" d="M20,5.17l8.84.9a1.53,1.53,0,0,1,1.37,1.52v14a1.52,1.52,0,0,0,1.46,1.52l8,.35A1.52,1.52,0,0,1,41.18,25V38.12a1.52,1.52,0,0,0,1.55,1.52l6.9-.14A1.53,1.53,0,0,1,51.19,41V53.51A1.53,1.53,0,0,1,49.79,55L20,57.53A1.54,1.54,0,0,1,18.33,56V6.69A1.53,1.53,0,0,1,20,5.17Z"/><path class="cls-10" d="M19,5.38l8.75.89a1.53,1.53,0,0,1,1.37,1.52V21.62a1.53,1.53,0,0,0,1.46,1.53l8,.34A1.53,1.53,0,0,1,40,25v13a1.53,1.53,0,0,0,1.56,1.53l6.81-.15A1.53,1.53,0,0,1,49.91,41V53.32a1.52,1.52,0,0,1-1.4,1.52L19,57.32a1.54,1.54,0,0,1-1.66-1.52V6.9A1.53,1.53,0,0,1,19,5.38Z"/><path class="cls-11" d="M18,5.59l8.64.88A1.54,1.54,0,0,1,28,8v13.7a1.52,1.52,0,0,0,1.46,1.52l7.86.34a1.54,1.54,0,0,1,1.46,1.53V38a1.52,1.52,0,0,0,1.56,1.53l6.73-.14a1.52,1.52,0,0,1,1.56,1.52V53.13a1.53,1.53,0,0,1-1.4,1.53L18,57.11a1.54,1.54,0,0,1-1.66-1.52V7.11A1.54,1.54,0,0,1,18,5.59Z"/><path class="cls-12" d="M17,5.8l8.55.87a1.52,1.52,0,0,1,1.37,1.52V21.75a1.54,1.54,0,0,0,1.46,1.53l7.78.33a1.54,1.54,0,0,1,1.46,1.53V37.92a1.52,1.52,0,0,0,1.56,1.52l6.65-.14a1.53,1.53,0,0,1,1.56,1.53V53A1.53,1.53,0,0,1,46,54.47l-29,2.43a1.53,1.53,0,0,1-1.65-1.52V7.32A1.53,1.53,0,0,1,17,5.8Z"/><path class="cls-13" d="M15.94,6l8.46.86a1.52,1.52,0,0,1,1.37,1.52V21.82a1.51,1.51,0,0,0,1.46,1.52l7.69.34a1.52,1.52,0,0,1,1.46,1.52V37.85a1.52,1.52,0,0,0,1.56,1.53l6.57-.14a1.52,1.52,0,0,1,1.56,1.53v12a1.53,1.53,0,0,1-1.4,1.52L15.91,56.69a1.53,1.53,0,0,1-1.65-1.52V7.53A1.52,1.52,0,0,1,15.94,6Z"/><path class="cls-14" d="M14.92,6.22l8.36.85a1.53,1.53,0,0,1,1.38,1.52v13.3a1.52,1.52,0,0,0,1.46,1.52l7.6.33a1.53,1.53,0,0,1,1.46,1.52V37.78a1.52,1.52,0,0,0,1.56,1.53l6.49-.14a1.54,1.54,0,0,1,1.56,1.53V52.57a1.52,1.52,0,0,1-1.4,1.52l-28.5,2.39A1.52,1.52,0,0,1,13.24,55V7.74A1.52,1.52,0,0,1,14.92,6.22Z"/><path class="cls-15" d="M13.9,6.43l8.27.84a1.52,1.52,0,0,1,1.37,1.52V22A1.54,1.54,0,0,0,25,23.48l7.52.32A1.54,1.54,0,0,1,34,25.33V37.72a1.52,1.52,0,0,0,1.56,1.52L42,39.11a1.52,1.52,0,0,1,1.56,1.53V52.39a1.53,1.53,0,0,1-1.4,1.52L13.87,56.27a1.52,1.52,0,0,1-1.65-1.52V8A1.52,1.52,0,0,1,13.9,6.43Z"/><path class="cls-16" d="M12.88,6.64l8.18.83A1.52,1.52,0,0,1,22.43,9V22a1.53,1.53,0,0,0,1.46,1.52l7.43.32a1.54,1.54,0,0,1,1.46,1.53V37.65a1.52,1.52,0,0,0,1.56,1.53l6.33-.13a1.52,1.52,0,0,1,1.56,1.52V52.2a1.53,1.53,0,0,1-1.4,1.52l-28,2.34a1.53,1.53,0,0,1-1.66-1.52V8.16A1.52,1.52,0,0,1,12.88,6.64Z"/><path class="cls-17" d="M11.86,6.85,20,7.67a1.52,1.52,0,0,1,1.37,1.51v12.9a1.53,1.53,0,0,0,1.46,1.53l7.34.32a1.52,1.52,0,0,1,1.46,1.52V37.59a1.52,1.52,0,0,0,1.56,1.52L39.39,39A1.52,1.52,0,0,1,41,40.51V52a1.52,1.52,0,0,1-1.4,1.52L11.84,55.85a1.52,1.52,0,0,1-1.66-1.52v-46A1.52,1.52,0,0,1,11.86,6.85Z"/><path class="cls-18" d="M10.85,7.05l8,.82a1.53,1.53,0,0,1,1.38,1.51V22.15a1.51,1.51,0,0,0,1.46,1.52l7.25.32a1.53,1.53,0,0,1,1.46,1.52v12a1.53,1.53,0,0,0,1.56,1.53l6.18-.13a1.52,1.52,0,0,1,1.55,1.52V51.82a1.53,1.53,0,0,1-1.4,1.53L10.82,55.64a1.52,1.52,0,0,1-1.65-1.52V8.57A1.53,1.53,0,0,1,10.85,7.05Z"/><path class="cls-19" d="M9.83,7.26l7.89.81a1.51,1.51,0,0,1,1.37,1.51V22.22a1.53,1.53,0,0,0,1.46,1.52l7.17.31a1.53,1.53,0,0,1,1.46,1.52V37.45A1.52,1.52,0,0,0,30.74,39l6.1-.13a1.52,1.52,0,0,1,1.55,1.53V51.64A1.52,1.52,0,0,1,37,53.16L9.8,55.44a1.53,1.53,0,0,1-1.65-1.53V8.78A1.53,1.53,0,0,1,9.83,7.26Z"/><path class="cls-20" d="M8.81,7.47l7.8.79A1.53,1.53,0,0,1,18,9.78v12.5a1.53,1.53,0,0,0,1.46,1.53l7.08.3A1.53,1.53,0,0,1,28,25.64V37.39a1.52,1.52,0,0,0,1.56,1.52l6-.12a1.53,1.53,0,0,1,1.56,1.52V51.45A1.53,1.53,0,0,1,35.72,53L8.78,55.23a1.53,1.53,0,0,1-1.65-1.52V9A1.53,1.53,0,0,1,8.81,7.47Z"/><path class="cls-21" d="M7.79,7.68l7.71.78A1.54,1.54,0,0,1,16.87,10V22.35a1.52,1.52,0,0,0,1.46,1.52l7,.3a1.53,1.53,0,0,1,1.46,1.53V37.32a1.52,1.52,0,0,0,1.56,1.53l5.94-.13a1.53,1.53,0,0,1,1.56,1.53v11a1.52,1.52,0,0,1-1.4,1.52L7.76,55A1.53,1.53,0,0,1,6.11,53.5V9.2A1.53,1.53,0,0,1,7.79,7.68Z"/><path class="cls-22" d="M6.77,7.89l7.61.77a1.53,1.53,0,0,1,1.37,1.52V22.41a1.54,1.54,0,0,0,1.47,1.53l6.9.3a1.51,1.51,0,0,1,1.46,1.52v11.5a1.52,1.52,0,0,0,1.56,1.52L33,38.66a1.53,1.53,0,0,1,1.56,1.52v10.9a1.53,1.53,0,0,1-1.4,1.52L6.75,54.81a1.54,1.54,0,0,1-1.66-1.52V9.41A1.53,1.53,0,0,1,6.77,7.89Z"/><path class="cls-23" d="M5.75,8.1l7.52.76a1.53,1.53,0,0,1,1.37,1.52v12.1A1.52,1.52,0,0,0,16.1,24l6.82.3a1.52,1.52,0,0,1,1.46,1.52V37.19a1.54,1.54,0,0,0,1.56,1.53l5.78-.13a1.54,1.54,0,0,1,1.56,1.53V50.89a1.53,1.53,0,0,1-1.4,1.52L5.73,54.6a1.54,1.54,0,0,1-1.66-1.52V9.62A1.52,1.52,0,0,1,5.75,8.1Z"/><path class="cls-24" d="M4.74,8.31l7.42.75a1.53,1.53,0,0,1,1.37,1.52v12A1.52,1.52,0,0,0,15,24.07l6.73.29a1.53,1.53,0,0,1,1.46,1.53V37.12a1.52,1.52,0,0,0,1.56,1.53l5.7-.12A1.52,1.52,0,0,1,32,40.06V50.7a1.52,1.52,0,0,1-1.4,1.52L4.71,54.39a1.52,1.52,0,0,1-1.65-1.52v-43A1.52,1.52,0,0,1,4.74,8.31Z"/><path class="cls-25" d="M3.72,8.52,11,9.26a1.54,1.54,0,0,1,1.38,1.52V22.61a1.53,1.53,0,0,0,1.46,1.53l6.64.28A1.53,1.53,0,0,1,22,26V37.06a1.52,1.52,0,0,0,1.56,1.52l5.62-.12A1.54,1.54,0,0,1,30.72,40V50.51A1.53,1.53,0,0,1,29.32,52L3.69,54.18A1.52,1.52,0,0,1,2,52.66V10A1.52,1.52,0,0,1,3.72,8.52Z"/><path class="cls-26" d="M2.7,8.73l7.23.73A1.53,1.53,0,0,1,11.3,11v11.7a1.53,1.53,0,0,0,1.46,1.52l6.56.29A1.51,1.51,0,0,1,20.78,26V37a1.53,1.53,0,0,0,1.56,1.53l5.54-.12a1.52,1.52,0,0,1,1.56,1.53v10.4A1.53,1.53,0,0,1,28,51.85L2.67,54A1.52,1.52,0,0,1,1,52.45V10.25A1.52,1.52,0,0,1,2.7,8.73Z"/><path class="cls-27" d="M1.68,8.94l7.14.72a1.53,1.53,0,0,1,1.37,1.52V22.74a1.53,1.53,0,0,0,1.46,1.53l6.47.28a1.52,1.52,0,0,1,1.46,1.52V36.92a1.52,1.52,0,0,0,1.56,1.53l5.46-.11a1.52,1.52,0,0,1,1.56,1.52V50.14a1.53,1.53,0,0,1-1.4,1.52L1.65,53.76A1.52,1.52,0,0,1,0,52.24V10.45A1.52,1.52,0,0,1,1.68,8.94Z"/><path class="cls-28" d="M88.59,17.21h8.83l1.85,6.6c2.22-4.3,6.14-7.06,12.36-7.06,10.76,0,14.75,8.37,14.75,18.74s-4,18.74-14.75,18.74c-6.22,0-10.14-2.76-12.36-7.07V70.9H88.59ZM115.7,35.49c0-5.69-2.22-10.22-8.22-10.22s-8.21,4.53-8.21,10.22,2.22,10.21,8.21,10.21S115.7,41.1,115.7,35.49Z"/><path class="cls-28" d="M167.48,35.49c0,10.37-5.07,18.74-18.9,18.74s-18.9-8.37-18.9-18.74,5.15-18.74,18.9-18.74S167.48,25.12,167.48,35.49Zm-27.12,0c0,5.61,2.23,10.21,8.22,10.21s8.22-4.6,8.22-10.21-2.23-10.22-8.22-10.22S140.36,29.8,140.36,35.49Z"/><path class="cls-28" d="M181.45,53.77H170.78V.08h10.67Z"/><path class="cls-28" d="M184.76,17.21h10.67l5.84,23.73,5.92-23.73h10.67l-11,36.56c-3.3,15.13-14.75,18.66-22.12,17.51v-8.6c3.53,0,11.67-1.08,13.29-8.91h-2.31Z"/><path class="cls-29" d="M250.35,12.06A6,6,0,1,0,244.29,6,6,6,0,0,0,250.35,12.06Z"/><path class="cls-28" d="M230,7.37h-8.83V36.49c0,16.51,12.44,19.2,20,17.13V43.94c-3.45,0-9.37.54-9.37-7.45V26.19H245V53.77h10.68V17.21H231.84Z"/><path class="cls-28" d="M295.6,26.12l-9.91,3.68c-1.15-2.76-3.46-4.53-7.22-4.53-6,0-8.14,4.53-8.14,10.22s2.15,10.21,8.14,10.21a7.28,7.28,0,0,0,7.22-4.45l9.91,3.69c-2.54,5.53-7.91,9.29-17.13,9.29-13.75,0-18.82-8.37-18.82-18.74s5.07-18.74,18.82-18.74C287.76,16.75,293.06,20.51,295.6,26.12Z"/><path class="cls-28" d="M311.11,53.77H300.44V.08h10.67V29.73l10.22-12.52h12.21L320.64,32.8l12.9,21H322.25l-7.83-13.44-3.31,4Z"/><path class="cls-28" d="M370.11,28.11H360c0-5.6-12.44-6.06-12.52-.76-.07,7.6,23.74.46,23.28,16.2-.31,10.91-12.29,10.68-17.9,10.68-5.84,0-16.9-1.15-16.9-11.37l10.06.08c0,5.53,12.45,6,12.52.69.08-7.6-23.73-.46-23.27-16.21.31-10.67,12.83-10.67,17.9-10.67C359.05,16.75,370.11,18,370.11,28.11Z"/></g></g></svg>